<svg xmlns="http://www.w3.org/2000/svg" viewBox="0 0 400 400" preserveAspectRatio="xMidYMid slice">
  <!-- Sky Background -->
  <rect width="400" height="400" fill="#87CEEB" />
  
  <!-- Sun -->
  <circle cx="300" cy="100" r="50" fill="yellow" />
  
  <!-- Sun Rays -->
  <g fill="yellow" opacity="0.8">
    <rect x="295" y="20" width="10" height="30" />
    <rect x="295" y="150" width="10" height="30" />
    <rect x="220" y="95" width="30" height="10" />
    <rect x="350" y="95" width="30" height="10" />
    <rect transform="rotate(45 300 100)" x="295" y="20" width="10" height="30" />
    <rect transform="rotate(135 300 100)" x="295" y="20" width="10" height="30" />
    <rect transform="rotate(-45 300 100)" x="295" y="20" width="10" height="30" />
    <rect transform="rotate(-135 300 100)" x="295" y="20" width="10" height="30" />
  </g>
  
  <!-- Hills -->
  <path d="M0 250 Q100 250 200 300 T400 250 L400 400 L0 400 Z" fill="#32CD32" />
  <path d="M0 300 Q100 300 200 350 T400 300 L400 400 L0 400 Z" fill="#228B22" />
  
  <!-- Clouds -->
  <g fill="white">
    <circle cx="50" cy="120" r="20" />
    <circle cx="70" cy="120" r="25" />
    <circle cx="90" cy="120" r="20" />
    <circle cx="70" cy="105" r="20" />
  </g>
</svg>
